<mxfile host="65bd71144e">
    <diagram id="wfMYPycIQKSs0gvgFBlm" name="Page-1">
        <mxGraphModel dx="1569" dy="663" grid="0" gridSize="10" guides="1" tooltips="1" connect="1" arrows="1" fold="1" page="0" pageScale="1" pageWidth="850" pageHeight="1100" background="#ffffff" math="0" shadow="0">
            <root>
                <mxCell id="0"/>
                <mxCell id="1" parent="0"/>
                <mxCell id="10" style="edgeStyle=none;curved=1;rounded=1;sketch=1;html=1;exitX=0.5;exitY=1;exitDx=0;exitDy=0;entryX=0.5;entryY=0;entryDx=0;entryDy=0;fontColor=#000000;strokeColor=#000000;" edge="1" parent="1" source="2" target="3">
                    <mxGeometry relative="1" as="geometry"/>
                </mxCell>
                <mxCell id="2" value="Producer Microservice" style="rounded=0;whiteSpace=wrap;html=1;sketch=1;fillColor=#FFFFFF;strokeColor=#000000;fontColor=#000000;" vertex="1" parent="1">
                    <mxGeometry x="-136" y="197" width="120" height="60" as="geometry"/>
                </mxCell>
                <mxCell id="29" style="edgeStyle=none;curved=1;rounded=1;sketch=1;html=1;exitX=1;exitY=0.5;exitDx=0;exitDy=0;entryX=0;entryY=0.5;entryDx=0;entryDy=0;fontSize=12;fontColor=#000000;strokeColor=#000000;" edge="1" parent="1" source="3" target="18">
                    <mxGeometry relative="1" as="geometry"/>
                </mxCell>
                <mxCell id="3" value="Message" style="ellipse;whiteSpace=wrap;html=1;aspect=fixed;rounded=1;sketch=1;fontColor=#000000;strokeColor=#000000;fillColor=#FFFFFF;" vertex="1" parent="1">
                    <mxGeometry x="-114" y="337.25" width="70" height="70" as="geometry"/>
                </mxCell>
                <mxCell id="6" value="Consumer Microservice" style="rounded=0;whiteSpace=wrap;html=1;sketch=1;fillColor=#FFFFFF;strokeColor=#000000;fontColor=#000000;" vertex="1" parent="1">
                    <mxGeometry x="429" y="197" width="120" height="60" as="geometry"/>
                </mxCell>
                <mxCell id="30" style="edgeStyle=none;curved=1;rounded=1;sketch=1;html=1;exitX=0.5;exitY=0;exitDx=0;exitDy=0;entryX=0.5;entryY=1;entryDx=0;entryDy=0;fontSize=12;fontColor=#000000;strokeColor=#000000;" edge="1" parent="1" source="7" target="6">
                    <mxGeometry relative="1" as="geometry"/>
                </mxCell>
                <mxCell id="7" value="Message" style="ellipse;whiteSpace=wrap;html=1;aspect=fixed;rounded=1;sketch=1;fontColor=#000000;strokeColor=#000000;fillColor=#FFFFFF;" vertex="1" parent="1">
                    <mxGeometry x="454" y="337.25" width="70" height="70" as="geometry"/>
                </mxCell>
                <mxCell id="11" value="" style="shape=cylinder3;whiteSpace=wrap;html=1;boundedLbl=1;backgroundOutline=1;size=15;rounded=1;sketch=1;fontColor=#000000;strokeColor=#000000;fillColor=#FFFFFF;direction=south;" vertex="1" parent="1">
                    <mxGeometry x="-8" y="284" width="416" height="179" as="geometry"/>
                </mxCell>
                <mxCell id="12" value="&lt;b&gt;Kafka Cluster&lt;/b&gt;" style="text;html=1;strokeColor=none;fillColor=none;align=center;verticalAlign=middle;whiteSpace=wrap;rounded=0;sketch=1;fontColor=#000000;" vertex="1" parent="1">
                    <mxGeometry x="141.5" y="296.75" width="103" height="30" as="geometry"/>
                </mxCell>
                <mxCell id="13" value="" style="rounded=1;whiteSpace=wrap;html=1;sketch=1;fontColor=#000000;strokeColor=#000000;fillColor=#FFFFFF;direction=south;" vertex="1" parent="1">
                    <mxGeometry x="44" y="323.75" width="97" height="120" as="geometry"/>
                </mxCell>
                <mxCell id="14" value="&lt;b&gt;Broker 1&lt;/b&gt;" style="text;html=1;strokeColor=none;fillColor=none;align=center;verticalAlign=middle;whiteSpace=wrap;rounded=0;sketch=1;fontColor=#000000;" vertex="1" parent="1">
                    <mxGeometry x="38.5" y="330.75" width="103" height="30" as="geometry"/>
                </mxCell>
                <mxCell id="15" value="" style="rounded=1;whiteSpace=wrap;html=1;sketch=1;fontColor=#000000;strokeColor=#000000;fillColor=#FFFFFF;direction=south;" vertex="1" parent="1">
                    <mxGeometry x="244.5" y="323.75" width="97" height="120" as="geometry"/>
                </mxCell>
                <mxCell id="16" value="&lt;b&gt;Broker n&lt;/b&gt;" style="text;html=1;strokeColor=none;fillColor=none;align=center;verticalAlign=middle;whiteSpace=wrap;rounded=0;sketch=1;fontColor=#000000;" vertex="1" parent="1">
                    <mxGeometry x="238.5" y="333.75" width="103" height="30" as="geometry"/>
                </mxCell>
                <mxCell id="17" value="&lt;b&gt;&lt;font style=&quot;font-size: 23px&quot;&gt;...&lt;/font&gt;&lt;/b&gt;" style="text;html=1;strokeColor=none;fillColor=none;align=center;verticalAlign=middle;whiteSpace=wrap;rounded=0;sketch=1;fontColor=#000000;" vertex="1" parent="1">
                    <mxGeometry x="141.5" y="362.25" width="103" height="30" as="geometry"/>
                </mxCell>
                <mxCell id="18" value="" style="rounded=0;whiteSpace=wrap;html=1;sketch=1;fontSize=23;fontColor=#000000;strokeColor=#000000;fillColor=#FFFFFF;align=center;" vertex="1" parent="1">
                    <mxGeometry x="56" y="363.75" width="69" height="17" as="geometry"/>
                </mxCell>
                <mxCell id="20" value="&lt;b&gt;Topic 1&lt;/b&gt;" style="text;html=1;strokeColor=none;fillColor=none;align=center;verticalAlign=middle;whiteSpace=wrap;rounded=0;sketch=1;fontColor=#000000;" vertex="1" parent="1">
                    <mxGeometry x="69.5" y="365" width="46" height="14.5" as="geometry"/>
                </mxCell>
                <mxCell id="21" value="&lt;b&gt;&lt;font style=&quot;font-size: 23px&quot;&gt;...&lt;/font&gt;&lt;/b&gt;" style="text;html=1;strokeColor=none;fillColor=none;align=center;verticalAlign=middle;whiteSpace=wrap;rounded=0;sketch=1;fontColor=#000000;rotation=90;" vertex="1" parent="1">
                    <mxGeometry x="43" y="383.75" width="103" height="30" as="geometry"/>
                </mxCell>
                <mxCell id="22" value="" style="rounded=0;whiteSpace=wrap;html=1;sketch=1;fontSize=23;fontColor=#000000;strokeColor=#000000;fillColor=#FFFFFF;align=center;" vertex="1" parent="1">
                    <mxGeometry x="56" y="413.75" width="69" height="17" as="geometry"/>
                </mxCell>
                <mxCell id="23" value="&lt;b&gt;Topic n&lt;/b&gt;" style="text;html=1;strokeColor=none;fillColor=none;align=center;verticalAlign=middle;whiteSpace=wrap;rounded=0;sketch=1;fontColor=#000000;" vertex="1" parent="1">
                    <mxGeometry x="69.5" y="416.25" width="46" height="14.5" as="geometry"/>
                </mxCell>
                <mxCell id="31" style="edgeStyle=none;curved=1;rounded=1;sketch=1;html=1;exitX=1;exitY=0.5;exitDx=0;exitDy=0;entryX=0;entryY=0.5;entryDx=0;entryDy=0;fontSize=12;fontColor=#000000;strokeColor=#000000;" edge="1" parent="1" source="24" target="7">
                    <mxGeometry relative="1" as="geometry"/>
                </mxCell>
                <mxCell id="24" value="" style="rounded=0;whiteSpace=wrap;html=1;sketch=1;fontSize=23;fontColor=#000000;strokeColor=#000000;fillColor=#FFFFFF;align=center;" vertex="1" parent="1">
                    <mxGeometry x="261" y="365" width="69" height="17" as="geometry"/>
                </mxCell>
                <mxCell id="25" value="" style="rounded=0;whiteSpace=wrap;html=1;sketch=1;fontSize=23;fontColor=#000000;strokeColor=#000000;fillColor=#FFFFFF;align=center;" vertex="1" parent="1">
                    <mxGeometry x="261" y="416.25" width="69" height="17" as="geometry"/>
                </mxCell>
                <mxCell id="26" value="&lt;b&gt;&lt;font style=&quot;font-size: 23px&quot;&gt;...&lt;/font&gt;&lt;/b&gt;" style="text;html=1;strokeColor=none;fillColor=none;align=center;verticalAlign=middle;whiteSpace=wrap;rounded=0;sketch=1;fontColor=#000000;rotation=90;" vertex="1" parent="1">
                    <mxGeometry x="247" y="383.75" width="103" height="30" as="geometry"/>
                </mxCell>
                <mxCell id="27" value="&lt;b&gt;Topic 1&lt;/b&gt;" style="text;html=1;strokeColor=none;fillColor=none;align=center;verticalAlign=middle;whiteSpace=wrap;rounded=0;sketch=1;fontColor=#000000;" vertex="1" parent="1">
                    <mxGeometry x="272.5" y="366.25" width="46" height="14.5" as="geometry"/>
                </mxCell>
                <mxCell id="28" value="&lt;b&gt;Topic n&lt;/b&gt;" style="text;html=1;strokeColor=none;fillColor=none;align=center;verticalAlign=middle;whiteSpace=wrap;rounded=0;sketch=1;fontColor=#000000;" vertex="1" parent="1">
                    <mxGeometry x="272.5" y="417.5" width="46" height="14.5" as="geometry"/>
                </mxCell>
            </root>
        </mxGraphModel>
    </diagram>
</mxfile>